<svg width="196" height="196" viewBox="0 0 196 196" fill="none" xmlns="http://www.w3.org/2000/svg">
<rect width="196" height="196" rx="24" fill="#202122"/>
<g filter="url(#filter0_d_77_326)">
<rect x="30" y="30" width="64" height="64" rx="5" fill="#C7D1DB"/>
<rect x="31" y="31" width="62" height="62" rx="4" stroke="#4A4C4F" stroke-width="2"/>
<path d="M62.0312 76.2656C62.6719 76.2656 63.2812 76.1719 63.8594 75.9844C64.4375 75.7969 64.9453 75.5312 65.3828 75.1875C65.8203 74.8438 66.1562 74.4297 66.3906 73.9453C66.6406 73.4609 66.75 72.9219 66.7188 72.3281H72.8594C72.8906 73.6406 72.6172 74.8594 72.0391 75.9844C71.4766 77.1094 70.7031 78.0781 69.7188 78.8906C68.7344 79.7031 67.5859 80.3438 66.2734 80.8125C64.9766 81.2656 63.6016 81.4922 62.1484 81.4922C60.1797 81.4922 58.4531 81.1641 56.9688 80.5078C55.4844 79.8359 54.25 78.9219 53.2656 77.7656C52.2656 76.6094 51.5078 75.2578 50.9922 73.7109C50.4922 72.1484 50.2422 70.4766 50.2422 68.6953V67.9922C50.2422 66.2109 50.4922 64.5469 50.9922 63C51.4922 61.4375 52.2422 60.0781 53.2422 58.9219C54.2422 57.7656 55.4766 56.8516 56.9453 56.1797C58.4297 55.5078 60.1484 55.1719 62.1016 55.1719C63.6641 55.1719 65.1094 55.4062 66.4375 55.875C67.7656 56.3438 68.9141 57 69.8828 57.8438C70.8359 58.7031 71.5781 59.7422 72.1094 60.9609C72.6406 62.1641 72.8906 63.5156 72.8594 65.0156H66.7188C66.75 64.3906 66.6562 63.7969 66.4375 63.2344C66.2188 62.6719 65.8984 62.1875 65.4766 61.7812C65.0547 61.375 64.5469 61.0547 63.9531 60.8203C63.3594 60.5703 62.7109 60.4453 62.0078 60.4453C60.9766 60.4453 60.125 60.6562 59.4531 61.0781C58.7812 61.5 58.25 62.0625 57.8594 62.7656C57.4531 63.4688 57.1641 64.2734 56.9922 65.1797C56.8359 66.0859 56.7578 67.0234 56.7578 67.9922V68.6953C56.7578 69.6797 56.8359 70.6328 56.9922 71.5547C57.1484 72.4609 57.4297 73.2578 57.8359 73.9453C58.2266 74.6484 58.7578 75.2109 59.4297 75.6328C60.1172 76.0547 60.9844 76.2656 62.0312 76.2656Z" fill="#202122"/>
</g>
<g filter="url(#filter1_d_77_326)">
<rect x="102" y="30" width="64" height="64" rx="5" fill="#C7D1DB"/>
<rect x="103" y="31" width="62" height="62" rx="4" stroke="#4A4C4F" stroke-width="2"/>
<path d="M129.32 59.1328C129.648 58.6484 130.008 58.2031 130.398 57.7969C130.805 57.375 131.227 57.0078 131.664 56.6953C132.336 56.2109 133.078 55.8359 133.891 55.5703C134.703 55.3047 135.562 55.1719 136.469 55.1719C137.797 55.1719 139.016 55.375 140.125 55.7812C141.234 56.1719 142.188 56.7891 142.984 57.6328C143.781 58.4766 144.398 59.5625 144.836 60.8906C145.289 62.2031 145.516 63.7891 145.516 65.6484V81H139V65.6016C139 64.6953 138.883 63.9141 138.648 63.2578C138.43 62.6016 138.109 62.0703 137.688 61.6641C137.266 61.2578 136.758 60.9609 136.164 60.7734C135.57 60.5703 134.898 60.4688 134.148 60.4688C133.57 60.4688 133.031 60.5234 132.531 60.6328C132.031 60.7422 131.578 60.9062 131.172 61.125C130.797 61.3125 130.453 61.5391 130.141 61.8047C129.844 62.0703 129.57 62.3672 129.32 62.6953V81H122.805V45H129.32V59.1328Z" fill="#202122"/>
</g>
<g filter="url(#filter2_d_77_326)">
<rect x="30" y="102" width="64" height="64" rx="5" fill="#C7D1DB"/>
<rect x="31" y="103" width="62" height="62" rx="4" stroke="#4A4C4F" stroke-width="2"/>
<path d="M66.6484 153C66.4922 152.688 66.3594 152.328 66.25 151.922C66.1406 151.516 66.0469 151.086 65.9688 150.633C65.6094 151.023 65.1953 151.391 64.7266 151.734C64.2578 152.078 63.7422 152.375 63.1797 152.625C62.6016 152.891 61.9688 153.094 61.2812 153.234C60.5938 153.391 59.8516 153.469 59.0547 153.469C57.7578 153.469 56.5625 153.281 55.4688 152.906C54.3906 152.531 53.4609 152.008 52.6797 151.336C51.8984 150.664 51.2891 149.867 50.8516 148.945C50.4141 148.008 50.1953 146.992 50.1953 145.898C50.1953 144.492 50.4688 143.25 51.0156 142.172C51.5625 141.078 52.3828 140.18 53.4766 139.477C54.4609 138.836 55.6719 138.352 57.1094 138.023C58.5625 137.68 60.2266 137.508 62.1016 137.508H65.7344V136.008C65.7344 135.414 65.6406 134.883 65.4531 134.414C65.2656 133.93 64.9844 133.516 64.6094 133.172C64.2188 132.812 63.7266 132.539 63.1328 132.352C62.5547 132.148 61.875 132.047 61.0938 132.047C60.4062 132.047 59.8125 132.133 59.3125 132.305C58.8125 132.461 58.4062 132.688 58.0938 132.984C57.8125 133.25 57.6016 133.57 57.4609 133.945C57.3359 134.32 57.2734 134.734 57.2734 135.188H50.7578C50.7578 134.109 50.9922 133.086 51.4609 132.117C51.9453 131.148 52.6484 130.297 53.5703 129.562C54.4766 128.828 55.5859 128.25 56.8984 127.828C58.2266 127.391 59.7422 127.172 61.4453 127.172C62.9766 127.172 64.3984 127.359 65.7109 127.734C67.0391 128.109 68.1875 128.664 69.1562 129.398C70.125 130.133 70.8828 131.062 71.4297 132.188C71.9766 133.297 72.25 134.586 72.25 136.055V146.93C72.25 148.289 72.3359 149.414 72.5078 150.305C72.6797 151.195 72.9297 151.961 73.2578 152.602V153H66.6484ZM60.4375 148.43C61.0938 148.43 61.7031 148.352 62.2656 148.195C62.8281 148.039 63.3359 147.836 63.7891 147.586C64.2422 147.336 64.6328 147.055 64.9609 146.742C65.2891 146.414 65.5469 146.086 65.7344 145.758V141.398H62.4062C61.3906 141.398 60.5234 141.5 59.8047 141.703C59.0859 141.891 58.5 142.156 58.0469 142.5C57.5938 142.859 57.2578 143.289 57.0391 143.789C56.8203 144.273 56.7109 144.805 56.7109 145.383C56.7109 145.836 56.7891 146.258 56.9453 146.648C57.1172 147.023 57.3594 147.344 57.6719 147.609C57.9844 147.859 58.3672 148.062 58.8203 148.219C59.2891 148.359 59.8281 148.43 60.4375 148.43Z" fill="#202122"/>
</g>
<g filter="url(#filter3_d_77_326)">
<rect x="102" y="102" width="64" height="64" rx="5" fill="#C7D1DB"/>
<rect x="103" y="103" width="62" height="62" rx="4" stroke="#4A4C4F" stroke-width="2"/>
<path d="M141.016 127.172C142 127.172 142.906 127.242 143.734 127.383C144.578 127.508 145.258 127.648 145.773 127.805L144.812 134.297C143.953 134.094 143.07 133.945 142.164 133.852C141.273 133.742 140.422 133.688 139.609 133.688C138.766 133.688 138 133.766 137.312 133.922C136.641 134.062 136.039 134.281 135.508 134.578C134.867 134.922 134.32 135.359 133.867 135.891C133.414 136.422 133.039 137.047 132.742 137.766V153H126.227V127.641H132.297L132.555 131.227L132.602 131.789C133.633 130.352 134.867 129.227 136.305 128.414C137.742 127.586 139.312 127.172 141.016 127.172Z" fill="#202122"/>
</g>
<defs>
<filter id="filter0_d_77_326" x="28" y="30" width="66" height="66" filterUnits="userSpaceOnUse" color-interpolation-filters="sRGB">
<feFlood flood-opacity="0" result="BackgroundImageFix"/>
<feColorMatrix in="SourceAlpha" type="matrix" values="0 0 0 0 0 0 0 0 0 0 0 0 0 0 0 0 0 0 127 0" result="hardAlpha"/>
<feOffset dx="-2" dy="2"/>
<feComposite in2="hardAlpha" operator="out"/>
<feColorMatrix type="matrix" values="0 0 0 0 0.290196 0 0 0 0 0.298039 0 0 0 0 0.309804 0 0 0 1 0"/>
<feBlend mode="normal" in2="BackgroundImageFix" result="effect1_dropShadow_77_326"/>
<feBlend mode="normal" in="SourceGraphic" in2="effect1_dropShadow_77_326" result="shape"/>
</filter>
<filter id="filter1_d_77_326" x="100" y="30" width="66" height="66" filterUnits="userSpaceOnUse" color-interpolation-filters="sRGB">
<feFlood flood-opacity="0" result="BackgroundImageFix"/>
<feColorMatrix in="SourceAlpha" type="matrix" values="0 0 0 0 0 0 0 0 0 0 0 0 0 0 0 0 0 0 127 0" result="hardAlpha"/>
<feOffset dx="-2" dy="2"/>
<feComposite in2="hardAlpha" operator="out"/>
<feColorMatrix type="matrix" values="0 0 0 0 0.290196 0 0 0 0 0.298039 0 0 0 0 0.309804 0 0 0 1 0"/>
<feBlend mode="normal" in2="BackgroundImageFix" result="effect1_dropShadow_77_326"/>
<feBlend mode="normal" in="SourceGraphic" in2="effect1_dropShadow_77_326" result="shape"/>
</filter>
<filter id="filter2_d_77_326" x="28" y="102" width="66" height="66" filterUnits="userSpaceOnUse" color-interpolation-filters="sRGB">
<feFlood flood-opacity="0" result="BackgroundImageFix"/>
<feColorMatrix in="SourceAlpha" type="matrix" values="0 0 0 0 0 0 0 0 0 0 0 0 0 0 0 0 0 0 127 0" result="hardAlpha"/>
<feOffset dx="-2" dy="2"/>
<feComposite in2="hardAlpha" operator="out"/>
<feColorMatrix type="matrix" values="0 0 0 0 0.290196 0 0 0 0 0.298039 0 0 0 0 0.309804 0 0 0 1 0"/>
<feBlend mode="normal" in2="BackgroundImageFix" result="effect1_dropShadow_77_326"/>
<feBlend mode="normal" in="SourceGraphic" in2="effect1_dropShadow_77_326" result="shape"/>
</filter>
<filter id="filter3_d_77_326" x="100" y="102" width="66" height="66" filterUnits="userSpaceOnUse" color-interpolation-filters="sRGB">
<feFlood flood-opacity="0" result="BackgroundImageFix"/>
<feColorMatrix in="SourceAlpha" type="matrix" values="0 0 0 0 0 0 0 0 0 0 0 0 0 0 0 0 0 0 127 0" result="hardAlpha"/>
<feOffset dx="-2" dy="2"/>
<feComposite in2="hardAlpha" operator="out"/>
<feColorMatrix type="matrix" values="0 0 0 0 0.290196 0 0 0 0 0.298039 0 0 0 0 0.309804 0 0 0 1 0"/>
<feBlend mode="normal" in2="BackgroundImageFix" result="effect1_dropShadow_77_326"/>
<feBlend mode="normal" in="SourceGraphic" in2="effect1_dropShadow_77_326" result="shape"/>
</filter>
</defs>
</svg>
